<?xml version="1.0" encoding="utf-8"?><!-- Uploaded to: SVG Repo, www.svgrepo.com, Generator: SVG Repo Mixer Tools -->
<svg width="24px" height="24px" viewBox="0 0 24 24" xmlns="http://www.w3.org/2000/svg" >
  <path  d="M4 5a1 1 0 0 1 1-1h4a1 1 0 0 1 1 1v5a1 1 0 0 1-1 1H5a1 1 0 0 1-1-1V5ZM14 5a1 1 0 0 1 1-1h4a1 1 0 0 1 1 1v2a1 1 0 0 1-1 1h-4a1 1 0 0 1-1-1V5ZM4 16a1 1 0 0 1 1-1h4a1 1 0 0 1 1 1v3a1 1 0 0 1-1 1H5a1 1 0 0 1-1-1v-3ZM14 13a1 1 0 0 1 1-1h4a1 1 0 0 1 1 1v6a1 1 0 0 1-1 1h-4a1 1 0 0 1-1-1v-6Z"/>
</svg>